<mxfile host="app.diagrams.net" modified="2024-05-06T12:06:52.830Z" agent="Mozilla/5.0 (Windows NT 10.0; Win64; x64) AppleWebKit/537.36 (KHTML, like Gecko) Chrome/124.0.0.0 Safari/537.36" etag="qma60tIgt7F52eoeN0Oq" scale="0.8" border="15" version="24.3.1" type="device">
  <diagram name="Page-1" id="RXJpmtvG1LazTKa4miqF">
    <mxGraphModel dx="1050" dy="522" grid="1" gridSize="10" guides="1" tooltips="1" connect="1" arrows="1" fold="1" page="1" pageScale="1" pageWidth="827" pageHeight="1169" math="0" shadow="0">
      <root>
        <mxCell id="0" />
        <mxCell id="1" parent="0" />
        <mxCell id="p6ulh9Zvrn2zn8_a1JV_-1" style="edgeStyle=orthogonalEdgeStyle;rounded=0;orthogonalLoop=1;jettySize=auto;html=1;exitX=1;exitY=0.5;exitDx=0;exitDy=0;" edge="1" parent="1" source="p6ulh9Zvrn2zn8_a1JV_-2">
          <mxGeometry relative="1" as="geometry">
            <mxPoint x="280" y="160" as="targetPoint" />
          </mxGeometry>
        </mxCell>
        <mxCell id="p6ulh9Zvrn2zn8_a1JV_-2" value="" style="ellipse;whiteSpace=wrap;html=1;" vertex="1" parent="1">
          <mxGeometry x="50" y="120" width="120" height="80" as="geometry" />
        </mxCell>
        <mxCell id="p6ulh9Zvrn2zn8_a1JV_-3" style="edgeStyle=orthogonalEdgeStyle;rounded=0;orthogonalLoop=1;jettySize=auto;html=1;exitX=1;exitY=0.5;exitDx=0;exitDy=0;entryX=0;entryY=0.5;entryDx=0;entryDy=0;" edge="1" parent="1" source="p6ulh9Zvrn2zn8_a1JV_-4" target="p6ulh9Zvrn2zn8_a1JV_-10">
          <mxGeometry relative="1" as="geometry" />
        </mxCell>
        <mxCell id="p6ulh9Zvrn2zn8_a1JV_-4" value="" style="rounded=0;whiteSpace=wrap;html=1;" vertex="1" parent="1">
          <mxGeometry x="280" y="122.5" width="120" height="70" as="geometry" />
        </mxCell>
        <mxCell id="p6ulh9Zvrn2zn8_a1JV_-5" style="edgeStyle=orthogonalEdgeStyle;rounded=0;orthogonalLoop=1;jettySize=auto;html=1;exitX=1;exitY=0.5;exitDx=0;exitDy=0;entryX=1;entryY=0.5;entryDx=0;entryDy=0;" edge="1" parent="1" source="p6ulh9Zvrn2zn8_a1JV_-6" target="p6ulh9Zvrn2zn8_a1JV_-13">
          <mxGeometry relative="1" as="geometry">
            <Array as="points">
              <mxPoint x="980" y="158" />
              <mxPoint x="980" y="345" />
            </Array>
          </mxGeometry>
        </mxCell>
        <mxCell id="p6ulh9Zvrn2zn8_a1JV_-6" value="" style="rounded=0;whiteSpace=wrap;html=1;" vertex="1" parent="1">
          <mxGeometry x="785" y="127.5" width="120" height="60" as="geometry" />
        </mxCell>
        <mxCell id="p6ulh9Zvrn2zn8_a1JV_-7" value="" style="rounded=0;whiteSpace=wrap;html=1;" vertex="1" parent="1">
          <mxGeometry x="540" y="320" width="120" height="60" as="geometry" />
        </mxCell>
        <mxCell id="p6ulh9Zvrn2zn8_a1JV_-8" style="edgeStyle=orthogonalEdgeStyle;rounded=0;orthogonalLoop=1;jettySize=auto;html=1;exitX=1;exitY=0.5;exitDx=0;exitDy=0;entryX=0;entryY=0.5;entryDx=0;entryDy=0;" edge="1" parent="1" source="p6ulh9Zvrn2zn8_a1JV_-10" target="p6ulh9Zvrn2zn8_a1JV_-6">
          <mxGeometry relative="1" as="geometry" />
        </mxCell>
        <mxCell id="p6ulh9Zvrn2zn8_a1JV_-9" style="edgeStyle=orthogonalEdgeStyle;rounded=0;orthogonalLoop=1;jettySize=auto;html=1;exitX=0.5;exitY=1;exitDx=0;exitDy=0;entryX=0.5;entryY=0;entryDx=0;entryDy=0;" edge="1" parent="1" source="p6ulh9Zvrn2zn8_a1JV_-10" target="p6ulh9Zvrn2zn8_a1JV_-13">
          <mxGeometry relative="1" as="geometry" />
        </mxCell>
        <mxCell id="p6ulh9Zvrn2zn8_a1JV_-10" value="" style="rhombus;whiteSpace=wrap;html=1;" vertex="1" parent="1">
          <mxGeometry x="555" y="107.5" width="110" height="100" as="geometry" />
        </mxCell>
        <mxCell id="p6ulh9Zvrn2zn8_a1JV_-11" style="edgeStyle=orthogonalEdgeStyle;rounded=0;orthogonalLoop=1;jettySize=auto;html=1;exitX=0.5;exitY=1;exitDx=0;exitDy=0;entryX=0.5;entryY=1;entryDx=0;entryDy=0;" edge="1" parent="1" source="p6ulh9Zvrn2zn8_a1JV_-13" target="p6ulh9Zvrn2zn8_a1JV_-14">
          <mxGeometry relative="1" as="geometry">
            <Array as="points">
              <mxPoint x="850" y="440" />
              <mxPoint x="340" y="440" />
            </Array>
          </mxGeometry>
        </mxCell>
        <mxCell id="p6ulh9Zvrn2zn8_a1JV_-12" style="edgeStyle=orthogonalEdgeStyle;rounded=0;orthogonalLoop=1;jettySize=auto;html=1;exitX=0;exitY=0.5;exitDx=0;exitDy=0;" edge="1" parent="1" source="p6ulh9Zvrn2zn8_a1JV_-13">
          <mxGeometry relative="1" as="geometry">
            <mxPoint x="660" y="345" as="targetPoint" />
          </mxGeometry>
        </mxCell>
        <mxCell id="p6ulh9Zvrn2zn8_a1JV_-13" value="" style="rhombus;whiteSpace=wrap;html=1;" vertex="1" parent="1">
          <mxGeometry x="790" y="295" width="120" height="100" as="geometry" />
        </mxCell>
        <mxCell id="p6ulh9Zvrn2zn8_a1JV_-42" style="edgeStyle=orthogonalEdgeStyle;rounded=0;orthogonalLoop=1;jettySize=auto;html=1;exitX=0;exitY=0.5;exitDx=0;exitDy=0;entryX=1;entryY=0.5;entryDx=0;entryDy=0;" edge="1" parent="1" source="p6ulh9Zvrn2zn8_a1JV_-14" target="p6ulh9Zvrn2zn8_a1JV_-15">
          <mxGeometry relative="1" as="geometry" />
        </mxCell>
        <mxCell id="p6ulh9Zvrn2zn8_a1JV_-14" value="" style="rhombus;whiteSpace=wrap;html=1;" vertex="1" parent="1">
          <mxGeometry x="280" y="300" width="120" height="100" as="geometry" />
        </mxCell>
        <mxCell id="p6ulh9Zvrn2zn8_a1JV_-15" value="" style="rounded=0;whiteSpace=wrap;html=1;" vertex="1" parent="1">
          <mxGeometry x="50" y="320" width="120" height="60" as="geometry" />
        </mxCell>
        <mxCell id="p6ulh9Zvrn2zn8_a1JV_-16" value="" style="ellipse;whiteSpace=wrap;html=1;" vertex="1" parent="1">
          <mxGeometry x="170" y="480" width="120" height="80" as="geometry" />
        </mxCell>
        <mxCell id="p6ulh9Zvrn2zn8_a1JV_-17" value="" style="endArrow=classic;html=1;rounded=0;exitX=0;exitY=0.5;exitDx=0;exitDy=0;entryX=1;entryY=0.5;entryDx=0;entryDy=0;" edge="1" parent="1" source="p6ulh9Zvrn2zn8_a1JV_-7" target="p6ulh9Zvrn2zn8_a1JV_-14">
          <mxGeometry width="50" height="50" relative="1" as="geometry">
            <mxPoint x="470" y="370" as="sourcePoint" />
            <mxPoint x="520" y="320" as="targetPoint" />
          </mxGeometry>
        </mxCell>
        <mxCell id="p6ulh9Zvrn2zn8_a1JV_-19" value="" style="endArrow=none;html=1;rounded=0;exitX=0.25;exitY=1;exitDx=0;exitDy=0;" edge="1" parent="1" source="p6ulh9Zvrn2zn8_a1JV_-15">
          <mxGeometry width="50" height="50" relative="1" as="geometry">
            <mxPoint x="300" y="380" as="sourcePoint" />
            <mxPoint x="80" y="520" as="targetPoint" />
            <Array as="points" />
          </mxGeometry>
        </mxCell>
        <mxCell id="p6ulh9Zvrn2zn8_a1JV_-20" value="" style="endArrow=classic;html=1;rounded=0;entryX=0;entryY=0.5;entryDx=0;entryDy=0;" edge="1" parent="1" target="p6ulh9Zvrn2zn8_a1JV_-16">
          <mxGeometry width="50" height="50" relative="1" as="geometry">
            <mxPoint x="80" y="520" as="sourcePoint" />
            <mxPoint x="350" y="330" as="targetPoint" />
          </mxGeometry>
        </mxCell>
        <mxCell id="p6ulh9Zvrn2zn8_a1JV_-21" value="" style="endArrow=none;html=1;rounded=0;" edge="1" parent="1">
          <mxGeometry width="50" height="50" relative="1" as="geometry">
            <mxPoint x="320" y="380" as="sourcePoint" />
            <mxPoint x="320" y="520" as="targetPoint" />
          </mxGeometry>
        </mxCell>
        <mxCell id="p6ulh9Zvrn2zn8_a1JV_-22" value="" style="endArrow=classic;html=1;rounded=0;" edge="1" parent="1" target="p6ulh9Zvrn2zn8_a1JV_-16">
          <mxGeometry width="50" height="50" relative="1" as="geometry">
            <mxPoint x="320" y="520" as="sourcePoint" />
            <mxPoint x="350" y="330" as="targetPoint" />
          </mxGeometry>
        </mxCell>
        <mxCell id="p6ulh9Zvrn2zn8_a1JV_-23" value="&lt;font style=&quot;font-size: 18px;&quot;&gt;Use GBN&lt;/font&gt;" style="text;html=1;align=center;verticalAlign=middle;whiteSpace=wrap;rounded=0;" vertex="1" parent="1">
          <mxGeometry x="815" y="140" width="60" height="30" as="geometry" />
        </mxCell>
        <mxCell id="p6ulh9Zvrn2zn8_a1JV_-24" value="&lt;font style=&quot;font-size: 18px;&quot;&gt;SNR &amp;gt; Threshold&lt;/font&gt;" style="text;html=1;align=center;verticalAlign=middle;whiteSpace=wrap;rounded=0;" vertex="1" parent="1">
          <mxGeometry x="580" y="142.5" width="60" height="32.5" as="geometry" />
        </mxCell>
        <mxCell id="p6ulh9Zvrn2zn8_a1JV_-25" value="&lt;font style=&quot;font-size: 18px;&quot;&gt;Estimate Channel Quality&lt;/font&gt;" style="text;html=1;align=center;verticalAlign=middle;whiteSpace=wrap;rounded=0;" vertex="1" parent="1">
          <mxGeometry x="290" y="137.5" width="100" height="40" as="geometry" />
        </mxCell>
        <mxCell id="p6ulh9Zvrn2zn8_a1JV_-26" value="&lt;font style=&quot;font-size: 18px;&quot;&gt;Use HARQ2&lt;/font&gt;" style="text;html=1;align=center;verticalAlign=middle;whiteSpace=wrap;rounded=0;" vertex="1" parent="1">
          <mxGeometry x="70" y="335" width="60" height="30" as="geometry" />
        </mxCell>
        <mxCell id="p6ulh9Zvrn2zn8_a1JV_-27" value="&lt;font style=&quot;font-size: 18px;&quot;&gt;No&lt;/font&gt;" style="text;html=1;align=center;verticalAlign=middle;whiteSpace=wrap;rounded=0;" vertex="1" parent="1">
          <mxGeometry x="670" y="220" width="100" height="37.5" as="geometry" />
        </mxCell>
        <mxCell id="p6ulh9Zvrn2zn8_a1JV_-28" value="&lt;font style=&quot;font-size: 15px;&quot;&gt;Moderate Channel Conditions?&lt;/font&gt;" style="text;html=1;align=center;verticalAlign=middle;whiteSpace=wrap;rounded=0;" vertex="1" parent="1">
          <mxGeometry x="820" y="330" width="60" height="30" as="geometry" />
        </mxCell>
        <mxCell id="p6ulh9Zvrn2zn8_a1JV_-29" value="&lt;font style=&quot;font-size: 18px;&quot;&gt;Start&lt;/font&gt;" style="text;html=1;align=center;verticalAlign=middle;whiteSpace=wrap;rounded=0;" vertex="1" parent="1">
          <mxGeometry x="70" y="145" width="80" height="35" as="geometry" />
        </mxCell>
        <mxCell id="p6ulh9Zvrn2zn8_a1JV_-30" value="&lt;font style=&quot;font-size: 18px;&quot;&gt;End&lt;/font&gt;" style="text;html=1;align=center;verticalAlign=middle;whiteSpace=wrap;rounded=0;" vertex="1" parent="1">
          <mxGeometry x="200" y="505" width="60" height="30" as="geometry" />
        </mxCell>
        <mxCell id="p6ulh9Zvrn2zn8_a1JV_-31" value="&lt;font style=&quot;font-size: 15px;&quot;&gt;Poor Channel Conditions?&lt;/font&gt;" style="text;html=1;align=center;verticalAlign=middle;whiteSpace=wrap;rounded=0;" vertex="1" parent="1">
          <mxGeometry x="310" y="330" width="60" height="30" as="geometry" />
        </mxCell>
        <mxCell id="p6ulh9Zvrn2zn8_a1JV_-32" value="&lt;font style=&quot;font-size: 18px;&quot;&gt;Use HARQ1&lt;/font&gt;" style="text;html=1;align=center;verticalAlign=middle;whiteSpace=wrap;rounded=0;" vertex="1" parent="1">
          <mxGeometry x="570" y="330" width="60" height="30" as="geometry" />
        </mxCell>
        <mxCell id="p6ulh9Zvrn2zn8_a1JV_-33" value="&lt;font style=&quot;font-size: 19px;&quot;&gt;Yes&lt;/font&gt;" style="text;html=1;align=center;verticalAlign=middle;whiteSpace=wrap;rounded=0;" vertex="1" parent="1">
          <mxGeometry x="875" y="115" width="120" height="60" as="geometry" />
        </mxCell>
        <mxCell id="p6ulh9Zvrn2zn8_a1JV_-34" value="&lt;font style=&quot;font-size: 19px;&quot;&gt;Yes&lt;/font&gt;" style="text;html=1;align=center;verticalAlign=middle;whiteSpace=wrap;rounded=0;" vertex="1" parent="1">
          <mxGeometry x="670" y="300" width="120" height="60" as="geometry" />
        </mxCell>
        <mxCell id="p6ulh9Zvrn2zn8_a1JV_-35" value="&lt;font style=&quot;font-size: 18px;&quot;&gt;No&lt;/font&gt;" style="text;html=1;align=center;verticalAlign=middle;whiteSpace=wrap;rounded=0;" vertex="1" parent="1">
          <mxGeometry x="510" y="395" width="100" height="60" as="geometry" />
        </mxCell>
        <mxCell id="p6ulh9Zvrn2zn8_a1JV_-36" value="&lt;font style=&quot;font-size: 18px;&quot;&gt;No&lt;/font&gt;" style="text;html=1;align=center;verticalAlign=middle;whiteSpace=wrap;rounded=0;" vertex="1" parent="1">
          <mxGeometry x="250" y="420" width="100" height="60" as="geometry" />
        </mxCell>
        <mxCell id="p6ulh9Zvrn2zn8_a1JV_-37" value="&lt;font style=&quot;font-size: 18px;&quot;&gt;Yes&lt;/font&gt;" style="text;html=1;align=center;verticalAlign=middle;whiteSpace=wrap;rounded=0;" vertex="1" parent="1">
          <mxGeometry x="190" y="270" width="120" height="60" as="geometry" />
        </mxCell>
      </root>
    </mxGraphModel>
  </diagram>
</mxfile>
